<svg width="32" height="32" viewBox="0 0 32 32" fill="none" xmlns="http://www.w3.org/2000/svg">
<path d="M20 12L12 19.9995M20 20L12 12.0005" stroke="#8ED06C" stroke-width="1.5" stroke-linecap="round" stroke-linejoin="round"/>
<path d="M3.33203 16.0007C3.33203 10.0295 3.33203 7.04397 5.18702 5.18897C7.04202 3.33398 10.0276 3.33398 15.9987 3.33398C21.9698 3.33398 24.9554 3.33398 26.8104 5.18897C28.6654 7.04397 28.6654 10.0295 28.6654 16.0007C28.6654 21.9717 28.6654 24.9573 26.8104 26.8124C24.9554 28.6673 21.9698 28.6673 15.9987 28.6673C10.0276 28.6673 7.04202 28.6673 5.18702 26.8124C3.33203 24.9573 3.33203 21.9717 3.33203 16.0007Z" stroke="#8ED06C" stroke-width="1.5"/>
</svg>
