<svg width="24" height="24" viewBox="0 0 24 24" fill="none" xmlns="http://www.w3.org/2000/svg">
<path d="M2.5 12C2.5 7.52166 2.5 5.28249 3.89124 3.89124C5.28249 2.5 7.52166 2.5 12 2.5C16.4783 2.5 18.7175 2.5 20.1088 3.89124C21.5 5.28249 21.5 7.52166 21.5 12C21.5 16.4783 21.5 18.7175 20.1088 20.1088C18.7175 21.5 16.4783 21.5 12 21.5C7.52166 21.5 5.28249 21.5 3.89124 20.1088C2.5 18.7175 2.5 16.4783 2.5 12Z" stroke="#8ED06C" stroke-width="1.5"/>
<path d="M12.0045 7.03906V14.0894M12.0045 14.0894C12.3306 14.0938 12.6523 13.8696 12.8896 13.5961L14.4791 11.8134M12.0045 14.0894C11.6899 14.0852 11.3713 13.8623 11.1194 13.596L9.52059 11.8134M7.98828 17.0391H15.9883" stroke="#8ED06C" stroke-width="1.5" stroke-linecap="round"/>
</svg>
