<svg width="388" height="368" viewBox="0 0 388 368" fill="none" xmlns="http://www.w3.org/2000/svg">
<rect x="0.75" y="0.75" width="386.5" height="366.5" rx="15.25" fill="#F2F2F2"/>
<rect x="0.75" y="0.75" width="386.5" height="366.5" rx="15.25" stroke="#6E6E6E" stroke-width="1.5"/>
<path d="M192.667 174.333V163.467L189.2 166.933L187.333 165L194 158.333L200.667 165L198.8 166.933L195.333 163.467V174.333H192.667ZM186 179.667C185.267 179.667 184.639 179.406 184.117 178.884C183.596 178.362 183.334 177.734 183.333 177V173H186V177H202V173H204.667V177C204.667 177.733 204.406 178.361 203.884 178.884C203.362 179.407 202.734 179.668 202 179.667H186Z" fill="#6E6E6E" fill-opacity="0.5"/>
<path d="M121.24 210.192C117.832 210.192 115.624 207.824 115.624 204.16C115.624 200.528 117.912 198.112 121.336 198.112C124.104 198.112 126.168 199.728 126.568 202.24H124.408C124.008 200.88 122.84 200.08 121.288 200.08C119.128 200.08 117.768 201.648 117.768 204.144C117.768 206.624 119.144 208.224 121.288 208.224C122.872 208.224 124.088 207.392 124.472 206.096H126.6C126.152 208.56 124.008 210.192 121.24 210.192ZM130.039 210H128.103V198.096H130.039V210ZM133.062 200.512C132.39 200.512 131.862 199.984 131.862 199.328C131.862 198.672 132.39 198.16 133.062 198.16C133.702 198.16 134.23 198.672 134.23 199.328C134.23 199.984 133.702 200.512 133.062 200.512ZM132.086 210V202.096H134.038V210H132.086ZM135.591 206.032C135.591 203.584 137.207 201.856 139.543 201.856C141.703 201.856 143.175 203.056 143.383 204.96H141.431C141.207 204.064 140.551 203.6 139.623 203.6C138.375 203.6 137.543 204.544 137.543 206.032C137.543 207.52 138.311 208.448 139.559 208.448C140.535 208.448 141.223 207.968 141.431 207.104H143.399C143.159 208.944 141.623 210.208 139.559 210.208C137.159 210.208 135.591 208.544 135.591 206.032ZM146.82 210H144.884V198.096H146.82V205.408L149.892 202.096H152.34L149.332 205.232L152.276 210H150.036L147.972 206.672L146.82 207.872V210ZM160.462 210H158.51V203.728H156.99V202.096H158.51V199.632H160.462V202.096H161.998V203.728H160.462V210ZM162.669 206.032C162.669 203.568 164.445 201.872 166.893 201.872C169.341 201.872 171.117 203.568 171.117 206.032C171.117 208.496 169.341 210.192 166.893 210.192C164.445 210.192 162.669 208.496 162.669 206.032ZM164.621 206.032C164.621 207.472 165.549 208.448 166.893 208.448C168.237 208.448 169.165 207.472 169.165 206.032C169.165 204.592 168.237 203.616 166.893 203.616C165.549 203.616 164.621 204.592 164.621 206.032ZM176.593 201.568C176.593 199.52 178.289 198.096 180.753 198.096C183.121 198.096 184.625 199.408 184.689 201.52H182.641C182.593 200.512 181.873 199.92 180.721 199.92C179.457 199.92 178.641 200.528 178.641 201.504C178.641 202.336 179.089 202.8 180.065 203.024L181.905 203.424C183.905 203.856 184.881 204.88 184.881 206.624C184.881 208.8 183.185 210.208 180.609 210.208C178.113 210.208 176.481 208.88 176.433 206.784H178.481C178.497 207.776 179.297 208.368 180.609 208.368C181.969 208.368 182.833 207.776 182.833 206.8C182.833 206.016 182.433 205.552 181.473 205.344L179.617 204.928C177.633 204.496 176.593 203.36 176.593 201.568ZM189.982 210.208C187.63 210.208 185.982 208.496 185.982 206.048C185.982 203.568 187.598 201.856 189.918 201.856C192.286 201.856 193.79 203.44 193.79 205.904V206.496L187.838 206.512C187.982 207.904 188.718 208.608 190.014 208.608C191.086 208.608 191.79 208.192 192.014 207.44H193.822C193.486 209.168 192.046 210.208 189.982 210.208ZM189.934 203.456C188.782 203.456 188.078 204.08 187.886 205.264H191.854C191.854 204.176 191.102 203.456 189.934 203.456ZM197.32 210H195.384V198.096H197.32V210ZM202.903 210.208C200.551 210.208 198.903 208.496 198.903 206.048C198.903 203.568 200.519 201.856 202.839 201.856C205.207 201.856 206.711 203.44 206.711 205.904V206.496L200.759 206.512C200.903 207.904 201.639 208.608 202.935 208.608C204.007 208.608 204.711 208.192 204.935 207.44H206.743C206.407 209.168 204.967 210.208 202.903 210.208ZM202.855 203.456C201.703 203.456 200.999 204.08 200.807 205.264H204.775C204.775 204.176 204.023 203.456 202.855 203.456ZM207.81 206.032C207.81 203.584 209.426 201.856 211.762 201.856C213.922 201.856 215.394 203.056 215.602 204.96H213.65C213.426 204.064 212.77 203.6 211.842 203.6C210.594 203.6 209.762 204.544 209.762 206.032C209.762 207.52 210.53 208.448 211.778 208.448C212.754 208.448 213.442 207.968 213.65 207.104H215.618C215.378 208.944 213.842 210.208 211.778 210.208C209.378 210.208 207.81 208.544 207.81 206.032ZM219.759 210H217.807V203.728H216.287V202.096H217.807V199.632H219.759V202.096H221.295V203.728H219.759V210ZM229.157 198.304V210H227.109V198.304H229.157ZM233.413 210H231.461V202.096H233.253L233.413 203.024C233.813 202.368 234.613 201.856 235.749 201.856C236.949 201.856 237.781 202.448 238.197 203.36C238.597 202.448 239.525 201.856 240.725 201.856C242.645 201.856 243.701 203.008 243.701 204.832V210H241.765V205.344C241.765 204.208 241.157 203.616 240.229 203.616C239.285 203.616 238.565 204.224 238.565 205.52V210H236.613V205.328C236.613 204.224 236.021 203.632 235.093 203.632C234.165 203.632 233.413 204.24 233.413 205.52V210ZM247.969 210.208C246.289 210.208 245.265 209.232 245.265 207.744C245.265 206.288 246.321 205.376 248.193 205.232L250.561 205.056V204.88C250.561 203.808 249.921 203.376 248.929 203.376C247.777 203.376 247.137 203.856 247.137 204.688H245.473C245.473 202.976 246.881 201.856 249.025 201.856C251.153 201.856 252.465 203.008 252.465 205.2V210H250.753L250.609 208.832C250.273 209.648 249.201 210.208 247.969 210.208ZM248.609 208.736C249.809 208.736 250.577 208.016 250.577 206.8V206.384L248.929 206.512C247.713 206.624 247.249 207.024 247.249 207.664C247.249 208.384 247.729 208.736 248.609 208.736ZM253.935 205.872C253.935 203.568 255.439 201.84 257.695 201.84C258.879 201.84 259.807 202.336 260.271 203.184L260.383 202.096H262.191V209.6C262.191 212.24 260.607 213.888 258.047 213.888C255.775 213.888 254.223 212.592 253.983 210.48H255.935C256.063 211.504 256.847 212.112 258.047 212.112C259.391 212.112 260.255 211.264 260.255 209.952V208.64C259.759 209.376 258.783 209.84 257.647 209.84C255.407 209.84 253.935 208.16 253.935 205.872ZM255.903 205.824C255.903 207.152 256.751 208.144 258.031 208.144C259.375 208.144 260.207 207.2 260.207 205.824C260.207 204.48 259.391 203.552 258.031 203.552C256.735 203.552 255.903 204.528 255.903 205.824ZM267.747 210.208C265.395 210.208 263.747 208.496 263.747 206.048C263.747 203.568 265.363 201.856 267.683 201.856C270.051 201.856 271.555 203.44 271.555 205.904V206.496L265.603 206.512C265.747 207.904 266.483 208.608 267.779 208.608C268.851 208.608 269.555 208.192 269.779 207.44H271.587C271.251 209.168 269.811 210.208 267.747 210.208ZM267.699 203.456C266.547 203.456 265.843 204.08 265.651 205.264H269.619C269.619 204.176 268.867 203.456 267.699 203.456Z" fill="#6E6E6E" fill-opacity="0.5"/>
</svg>
