<svg width="48" height="48" viewBox="0 0 48 48" fill="none" xmlns="http://www.w3.org/2000/svg">
<rect width="48" height="48" rx="24" fill="#F5F5F5"/>
<path opacity="0.4" d="M15.4381 28.6415C13.5517 29.7647 8.60579 32.0582 11.6182 34.9282C13.0897 36.33 14.7286 37.3327 16.7891 37.3327H28.5468C30.6073 37.3327 32.2462 36.33 33.7177 34.9282C36.7301 32.0582 31.7842 29.7647 29.8978 28.6415C25.4744 26.0075 19.8616 26.0075 15.4381 28.6415Z" fill="#8ED06C"/>
<path d="M26.668 31.9993C26.668 31.9993 28.0013 31.9993 29.3346 34.666C29.3346 34.666 33.57 27.9993 37.3346 26.666" stroke="#8ED06C" stroke-width="1.5" stroke-linecap="round" stroke-linejoin="round"/>
<path d="M25.3346 37.3327H16.7891C14.7286 37.3327 13.0897 36.33 11.6182 34.9281C8.60579 32.0581 13.5517 29.7647 15.4381 28.6415C19.6759 26.1181 25.0052 26.0121 29.3346 28.3236" stroke="#8ED06C" stroke-width="1.5" stroke-linecap="round" stroke-linejoin="round"/>
<path d="M30 16.666C30 19.9797 27.3137 22.666 24 22.666C20.6863 22.666 18 19.9797 18 16.666C18 13.3523 20.6863 10.666 24 10.666C27.3137 10.666 30 13.3523 30 16.666Z" stroke="#8ED06C" stroke-width="1.5"/>
</svg>
