<svg width="24" height="25" viewBox="0 0 24 25" fill="none" xmlns="http://www.w3.org/2000/svg">
<path fill-rule="evenodd" clip-rule="evenodd" d="M4.76686 4.31365C6.67083 2.25186 9.13054 0.5 12 0.5C14.8695 0.5 17.3291 2.25186 19.2332 4.31365C21.1389 6.37731 22.5474 8.81444 23.3354 10.347L23.3948 10.4619C23.6774 11.007 24 11.6295 24 12.5C24 13.3705 23.6774 13.993 23.3948 14.5381L23.3354 14.653C22.5474 16.1856 21.1389 18.6226 19.2332 20.6863C17.3291 22.7482 14.8695 24.5 12 24.5C9.13054 24.5 6.67083 22.7482 4.76686 20.6863C2.86117 18.6226 1.45257 16.1856 0.664644 14.653L0.605235 14.5381C0.322649 13.993 0 13.3705 0 12.5C0 11.6295 0.322649 11.007 0.605235 10.4619L0.664644 10.347C1.45257 8.81444 2.86117 6.37731 4.76686 4.31365ZM8.09302 12.5C8.09302 15.493 9.84223 17.9194 12 17.9194C14.1578 17.9194 15.907 15.493 15.907 12.5C15.907 9.50697 14.1578 7.08065 12 7.08065C9.84223 7.08065 8.09302 9.50697 8.09302 12.5Z" fill="#333333"/>
</svg>
