<svg width="48" height="48" viewBox="0 0 48 48" fill="none" xmlns="http://www.w3.org/2000/svg">
<rect width="48" height="48" rx="24" fill="#F5F5F5"/>
<path opacity="0.4" d="M35.9236 30.4479C35.0485 25.1828 32.3243 21.2622 29.956 18.9593C29.2668 18.2892 28.9223 17.9542 28.1611 17.6441C27.3999 17.334 26.7456 17.334 25.4371 17.334H22.5629C21.2544 17.334 20.6001 17.334 19.839 17.6441C19.0778 17.9542 18.7332 18.2892 18.0441 18.9593C15.6758 21.2622 12.9515 25.1828 12.0764 30.4479C11.4252 34.3652 15.039 37.334 19.0778 37.334H28.9223C32.9609 37.334 36.5748 34.3652 35.9236 30.4479Z" fill="#8ED06C"/>
<path d="M35.9236 30.4479C35.0485 25.1828 32.3243 21.2622 29.956 18.9593C29.2668 18.2892 28.9223 17.9542 28.1611 17.6441C27.3999 17.334 26.7456 17.334 25.4371 17.334H22.5629C21.2544 17.334 20.6001 17.334 19.839 17.6441C19.0778 17.9542 18.7332 18.2892 18.0441 18.9593C15.6758 21.2622 12.9515 25.1828 12.0764 30.4479C11.4252 34.3652 15.039 37.334 19.0778 37.334H28.9223C32.9609 37.334 36.5748 34.3652 35.9236 30.4479Z" stroke="#8ED06C" stroke-width="1.5" stroke-linecap="round"/>
<path d="M17.6742 13.9232C17.3991 13.5228 17.0004 12.9793 17.824 12.8554C18.6706 12.728 19.5496 13.3075 20.4101 13.2956C21.1885 13.2849 21.5851 12.9396 22.0106 12.4467C22.4586 11.9276 23.1523 10.666 23.9987 10.666C24.8451 10.666 25.5388 11.9276 25.9868 12.4467C26.4123 12.9396 26.8088 13.2849 27.5872 13.2956C28.4478 13.3075 29.3268 12.728 30.1734 12.8554C30.997 12.9793 30.5983 13.5228 30.3232 13.9232L29.0794 15.7335C28.5474 16.508 28.2814 16.8952 27.7246 17.1139C27.1679 17.3327 26.4484 17.3327 25.0096 17.3327H22.9878C21.549 17.3327 20.8295 17.3327 20.2728 17.1139C19.7161 16.8952 19.45 16.508 18.918 15.7335L17.6742 13.9232Z" stroke="#8ED06C" stroke-width="1.5"/>
</svg>
