<svg width="24" height="24" viewBox="0 0 24 24" fill="none" xmlns="http://www.w3.org/2000/svg">
<path d="M8.71041 12.7098L13.3004 17.2998C13.393 17.3924 13.5029 17.4658 13.6239 17.5159C13.7448 17.566 13.8745 17.5918 14.0054 17.5918C14.1363 17.5918 14.266 17.566 14.387 17.5159C14.5079 17.4658 14.6178 17.3924 14.7104 17.2998C14.803 17.2072 14.8764 17.0973 14.9265 16.9763C14.9766 16.8554 15.0024 16.7257 15.0024 16.5948C15.0024 16.4638 14.9766 16.3342 14.9265 16.2132C14.8764 16.0923 14.803 15.9824 14.7104 15.8898L10.8304 11.9998L14.7104 8.11978C14.803 8.02719 14.8764 7.91728 14.9265 7.79632C14.9766 7.67536 15.0024 7.54571 15.0024 7.41478C15.0024 7.28385 14.9766 7.1542 14.9265 7.03323C14.8764 6.91227 14.803 6.80236 14.7104 6.70978C14.6178 6.61719 14.5079 6.54376 14.387 6.49365C14.266 6.44355 14.1363 6.41776 14.0054 6.41776C13.8745 6.41776 13.7448 6.44355 13.6239 6.49365C13.5029 6.54376 13.393 6.61719 13.3004 6.70978L8.71041 11.2998C8.61771 11.3923 8.54416 11.5022 8.49398 11.6232C8.4438 11.7441 8.41797 11.8738 8.41797 12.0048C8.41797 12.1357 8.4438 12.2654 8.49398 12.3864C8.54416 12.5074 8.61771 12.6173 8.71041 12.7098Z" fill="#004324"/>
</svg>
