<svg width="48" height="48" viewBox="0 0 48 48" fill="none" xmlns="http://www.w3.org/2000/svg">
<rect width="48" height="48" rx="24" fill="#F5F5F5"/>
<path d="M33.9987 33.9993C33.9987 35.8403 32.5063 37.3327 30.6654 37.3327C28.8244 37.3327 27.332 35.8403 27.332 33.9993C27.332 32.1584 28.8244 30.666 30.6654 30.666C32.5063 30.666 33.9987 32.1584 33.9987 33.9993Z" stroke="#8ED06C" stroke-width="1.5"/>
<path d="M20.6667 33.9993C20.6667 35.8403 19.1743 37.3327 17.3333 37.3327C15.4924 37.3327 14 35.8403 14 33.9993C14 32.1584 15.4924 30.666 17.3333 30.666C19.1743 30.666 20.6667 32.1584 20.6667 33.9993Z" stroke="#8ED06C" stroke-width="1.5"/>
<path d="M10.668 24V30.6667C10.668 31.9128 10.668 32.5359 10.9359 33C11.1114 33.304 11.3639 33.5565 11.668 33.732C12.1321 34 12.7551 34 14.0013 34M27.3346 34H20.668M28.0013 31.3333V20C28.0013 18.1144 28.0013 17.1716 27.4156 16.5858C26.8297 16 25.8869 16 24.0013 16H22.668M28.668 19.3333H31.0698C32.1761 19.3333 32.7292 19.3333 33.1877 19.5929C33.6461 19.8525 33.9308 20.3268 34.4998 21.2753L36.7646 25.05C37.0478 25.522 37.1894 25.7581 37.2621 26.0201C37.3346 26.2821 37.3346 26.5573 37.3346 27.108V30.6667C37.3346 31.9128 37.3346 32.5359 37.0666 33C36.8912 33.304 36.6386 33.5565 36.3346 33.732C35.8705 34 35.2474 34 34.0013 34" stroke="#8ED06C" stroke-width="1.5" stroke-linecap="round" stroke-linejoin="round"/>
<path opacity="0.4" d="M10.7566 17.7C11.2464 20.5213 13.7066 22.6667 16.668 22.6667C19.9817 22.6667 22.668 19.9804 22.668 16.6667C22.668 16.4413 22.6556 16.2189 22.6313 16H24.0013C25.8869 16 26.8297 16 27.4156 16.5858C27.9278 17.098 27.9921 17.8833 28.0001 19.3333H31.0698C32.1761 19.3333 32.7292 19.3333 33.1877 19.5929C33.6461 19.8525 33.9308 20.3268 34.4998 21.2753L36.7646 25.05C37.0478 25.522 37.1894 25.7581 37.2621 26.0201C37.3346 26.2821 37.3346 26.5573 37.3346 27.108V30.6667C37.3346 31.9128 37.3346 32.5359 37.0666 33C36.8912 33.304 36.6386 33.5565 36.3346 33.732C35.8705 34 35.2474 34 34.0013 34C34.0013 32.1591 32.5089 30.6667 30.668 30.6667C28.827 30.6667 27.3346 32.1591 27.3346 34H20.668C20.668 32.1591 19.1756 30.6667 17.3346 30.6667C15.4937 30.6667 14.0013 32.1591 14.0013 34C12.7551 34 12.1321 34 11.668 33.732C11.3639 33.5565 11.1114 33.304 10.9359 33C10.668 32.5359 10.668 31.9128 10.668 30.6667V20C10.668 18.9951 10.668 18.258 10.7566 17.7Z" fill="#8ED06C"/>
<path d="M18.468 18.466L16.668 17.266V14.266M10.668 16.666C10.668 19.9797 13.3543 22.666 16.668 22.666C19.9817 22.666 22.668 19.9797 22.668 16.666C22.668 13.3523 19.9817 10.666 16.668 10.666C13.3543 10.666 10.668 13.3523 10.668 16.666Z" stroke="#8ED06C" stroke-width="1.5" stroke-linecap="round" stroke-linejoin="round"/>
</svg>
