<svg width="48" height="48" viewBox="0 0 48 48" fill="none" xmlns="http://www.w3.org/2000/svg">
<rect width="48" height="48" rx="24" fill="#F5F5F5"/>
<path opacity="0.4" fill-rule="evenodd" clip-rule="evenodd" d="M24.0013 37.3347C31.365 37.3347 37.3346 31.3651 37.3346 24.0013C37.3346 16.6375 31.365 10.668 24.0013 10.668C16.6375 10.668 10.668 16.6375 10.668 24.0013C10.668 31.3651 16.6375 37.3347 24.0013 37.3347ZM18.668 17.3346L22.7758 25.5373C23.3598 26.7035 24.8832 27.0336 25.9049 26.2156C26.9268 25.3976 26.9214 23.852 25.8941 23.0408L18.668 17.3346Z" fill="#8ED06C"/>
<path d="M22.7758 25.5367L18.668 17.334L25.8941 23.0401C26.9214 23.8513 26.9268 25.3969 25.9049 26.2149C24.8832 27.0331 23.3598 26.7028 22.7758 25.5367Z" stroke="#8ED06C" stroke-width="1.5" stroke-linecap="round" stroke-linejoin="round"/>
<path d="M14.668 14.4258C12.1995 16.8512 10.668 20.231 10.668 23.9693C10.668 31.3497 16.6375 37.3326 24.0013 37.3326C31.365 37.3326 37.3346 31.3497 37.3346 23.9693C37.3346 17.4981 32.7454 12.1012 26.6509 10.8697C25.5362 10.6444 24.9789 10.5318 24.4901 10.9328C24.0013 11.3338 24.0013 11.982 24.0013 13.2785V14.6148" stroke="#8ED06C" stroke-width="1.5" stroke-linecap="round" stroke-linejoin="round"/>
</svg>
