<svg width="48" height="48" viewBox="0 0 48 48" fill="none" xmlns="http://www.w3.org/2000/svg">
<rect width="48" height="48" rx="24" fill="#F5F5F5"/>
<g opacity="0.4">
<path d="M10.668 18.666V25.9041C10.668 31.2916 10.668 33.9853 12.4036 35.6589C14.1393 37.3327 16.9328 37.3327 22.5198 37.3327H25.4828C27.22 37.3327 28.687 37.3327 29.9361 37.2824C27.1801 36.9033 25.1434 34.478 24.3053 33.3027C24.1026 33.0184 24.0013 32.8764 24.0013 32.666C24.0013 32.4556 24.1026 32.3136 24.3053 32.0293C25.216 30.7523 27.5418 27.9993 30.668 27.9993C33.7941 27.9993 36.12 30.7523 37.0306 32.0293C37.063 32.0748 37.0929 32.1168 37.1202 32.1559C37.3346 30.6023 37.3346 28.5872 37.3346 25.9041V18.666H10.668Z" fill="#8ED06C"/>
<path d="M36.8183 33.5938C35.9944 34.6834 34.4106 36.4256 32.3203 37.077C33.758 36.8542 34.7932 36.4377 35.5999 35.6599C36.1762 35.1041 36.5612 34.4359 36.8183 33.5938Z" fill="#8ED06C"/>
</g>
<path d="M37.3346 25.9993V18.666H10.668V25.9041C10.668 31.2916 10.668 33.9853 12.4036 35.6589C14.012 37.2099 16.5286 37.3236 21.3346 37.332" stroke="#8ED06C" stroke-width="1.5" stroke-linecap="round" stroke-linejoin="round"/>
<path d="M30.668 32.666H30.68" stroke="#8ED06C" stroke-width="2" stroke-linecap="round" stroke-linejoin="round"/>
<path d="M37.0293 32.03C37.232 32.3143 37.3333 32.4563 37.3333 32.6667C37.3333 32.8771 37.232 33.0191 37.0293 33.3033C36.1187 34.5804 33.7928 37.3333 30.6667 37.3333C27.5405 37.3333 25.2147 34.5804 24.304 33.3033C24.1013 33.0191 24 32.8771 24 32.6667C24 32.4563 24.1013 32.3143 24.304 32.03C25.2147 30.7529 27.5405 28 30.6667 28C33.7928 28 36.1187 30.7529 37.0293 32.03Z" stroke="#8ED06C" stroke-width="1.5"/>
<path d="M10.668 18.666L11.95 15.5891C12.9443 13.2028 13.4415 12.0096 14.4492 11.3378C15.4569 10.666 16.7495 10.666 19.3346 10.666H28.668C31.2532 10.666 32.5457 10.666 33.5534 11.3378C34.5612 12.0096 35.0582 13.2028 36.0526 15.5891L37.3346 18.666" stroke="#8ED06C" stroke-width="1.5" stroke-linecap="round"/>
<path d="M24 18.666V10.666" stroke="#8ED06C" stroke-width="1.5" stroke-linecap="round"/>
<path d="M21.332 24H26.6654" stroke="#8ED06C" stroke-width="1.5" stroke-linecap="round"/>
</svg>
