<svg width="779" height="138" viewBox="0 0 779 138" fill="none" xmlns="http://www.w3.org/2000/svg">
<rect width="779" height="138" rx="16" fill="#F2F2F2"/>
<rect x="0.75" y="0.75" width="777.5" height="136.5" rx="15.25" stroke="black" stroke-opacity="0.5" stroke-width="1.5"/>
<path d="M388.166 59.3333V48.4666L384.7 51.9333L382.833 49.9999L389.5 43.3333L396.166 49.9999L394.3 51.9333L390.833 48.4666V59.3333H388.166ZM381.5 64.6666C380.766 64.6666 380.139 64.4057 379.617 63.8839C379.095 63.3621 378.834 62.7341 378.833 61.9999V57.9999H381.5V61.9999H397.5V57.9999H400.166V61.9999C400.166 62.7333 399.905 63.3613 399.384 63.8839C398.862 64.4066 398.234 64.6675 397.5 64.6666H381.5Z" fill="#6E6E6E" fill-opacity="0.5"/>
<path d="M316.74 95.192C313.332 95.192 311.124 92.824 311.124 89.16C311.124 85.528 313.412 83.112 316.836 83.112C319.604 83.112 321.668 84.728 322.068 87.24H319.908C319.508 85.88 318.34 85.08 316.788 85.08C314.628 85.08 313.268 86.648 313.268 89.144C313.268 91.624 314.644 93.224 316.788 93.224C318.372 93.224 319.588 92.392 319.972 91.096H322.1C321.652 93.56 319.508 95.192 316.74 95.192ZM325.539 95H323.603V83.096H325.539V95ZM328.562 85.512C327.89 85.512 327.362 84.984 327.362 84.328C327.362 83.672 327.89 83.16 328.562 83.16C329.202 83.16 329.73 83.672 329.73 84.328C329.73 84.984 329.202 85.512 328.562 85.512ZM327.586 95V87.096H329.538V95H327.586ZM331.091 91.032C331.091 88.584 332.707 86.856 335.043 86.856C337.203 86.856 338.675 88.056 338.883 89.96H336.931C336.707 89.064 336.051 88.6 335.123 88.6C333.875 88.6 333.043 89.544 333.043 91.032C333.043 92.52 333.811 93.448 335.059 93.448C336.035 93.448 336.723 92.968 336.931 92.104H338.899C338.659 93.944 337.123 95.208 335.059 95.208C332.659 95.208 331.091 93.544 331.091 91.032ZM342.32 95H340.384V83.096H342.32V90.408L345.392 87.096H347.84L344.832 90.232L347.776 95H345.536L343.472 91.672L342.32 92.872V95ZM355.962 95H354.01V88.728H352.49V87.096H354.01V84.632H355.962V87.096H357.498V88.728H355.962V95ZM358.169 91.032C358.169 88.568 359.945 86.872 362.393 86.872C364.841 86.872 366.617 88.568 366.617 91.032C366.617 93.496 364.841 95.192 362.393 95.192C359.945 95.192 358.169 93.496 358.169 91.032ZM360.121 91.032C360.121 92.472 361.049 93.448 362.393 93.448C363.737 93.448 364.665 92.472 364.665 91.032C364.665 89.592 363.737 88.616 362.393 88.616C361.049 88.616 360.121 89.592 360.121 91.032ZM372.093 86.568C372.093 84.52 373.789 83.096 376.253 83.096C378.621 83.096 380.125 84.408 380.189 86.52H378.141C378.093 85.512 377.373 84.92 376.221 84.92C374.957 84.92 374.141 85.528 374.141 86.504C374.141 87.336 374.589 87.8 375.565 88.024L377.405 88.424C379.405 88.856 380.381 89.88 380.381 91.624C380.381 93.8 378.685 95.208 376.109 95.208C373.613 95.208 371.981 93.88 371.933 91.784H373.981C373.997 92.776 374.797 93.368 376.109 93.368C377.469 93.368 378.333 92.776 378.333 91.8C378.333 91.016 377.933 90.552 376.973 90.344L375.117 89.928C373.133 89.496 372.093 88.36 372.093 86.568ZM385.482 95.208C383.13 95.208 381.482 93.496 381.482 91.048C381.482 88.568 383.098 86.856 385.418 86.856C387.786 86.856 389.29 88.44 389.29 90.904V91.496L383.338 91.512C383.482 92.904 384.218 93.608 385.514 93.608C386.586 93.608 387.29 93.192 387.514 92.44H389.322C388.986 94.168 387.546 95.208 385.482 95.208ZM385.434 88.456C384.282 88.456 383.578 89.08 383.386 90.264H387.354C387.354 89.176 386.602 88.456 385.434 88.456ZM392.82 95H390.884V83.096H392.82V95ZM398.403 95.208C396.051 95.208 394.403 93.496 394.403 91.048C394.403 88.568 396.019 86.856 398.339 86.856C400.707 86.856 402.211 88.44 402.211 90.904V91.496L396.259 91.512C396.403 92.904 397.139 93.608 398.435 93.608C399.507 93.608 400.211 93.192 400.435 92.44H402.243C401.907 94.168 400.467 95.208 398.403 95.208ZM398.355 88.456C397.203 88.456 396.499 89.08 396.307 90.264H400.275C400.275 89.176 399.523 88.456 398.355 88.456ZM403.31 91.032C403.31 88.584 404.926 86.856 407.262 86.856C409.422 86.856 410.894 88.056 411.102 89.96H409.15C408.926 89.064 408.27 88.6 407.342 88.6C406.094 88.6 405.262 89.544 405.262 91.032C405.262 92.52 406.03 93.448 407.278 93.448C408.254 93.448 408.942 92.968 409.15 92.104H411.118C410.878 93.944 409.342 95.208 407.278 95.208C404.878 95.208 403.31 93.544 403.31 91.032ZM415.259 95H413.307V88.728H411.787V87.096H413.307V84.632H415.259V87.096H416.795V88.728H415.259V95ZM424.657 83.304V95H422.609V83.304H424.657ZM428.913 95H426.961V87.096H428.753L428.913 88.024C429.313 87.368 430.113 86.856 431.249 86.856C432.449 86.856 433.281 87.448 433.697 88.36C434.097 87.448 435.025 86.856 436.225 86.856C438.145 86.856 439.201 88.008 439.201 89.832V95H437.265V90.344C437.265 89.208 436.657 88.616 435.729 88.616C434.785 88.616 434.065 89.224 434.065 90.52V95H432.113V90.328C432.113 89.224 431.521 88.632 430.593 88.632C429.665 88.632 428.913 89.24 428.913 90.52V95ZM443.469 95.208C441.789 95.208 440.765 94.232 440.765 92.744C440.765 91.288 441.821 90.376 443.693 90.232L446.061 90.056V89.88C446.061 88.808 445.421 88.376 444.429 88.376C443.277 88.376 442.637 88.856 442.637 89.688H440.973C440.973 87.976 442.381 86.856 444.525 86.856C446.653 86.856 447.965 88.008 447.965 90.2V95H446.253L446.109 93.832C445.773 94.648 444.701 95.208 443.469 95.208ZM444.109 93.736C445.309 93.736 446.077 93.016 446.077 91.8V91.384L444.429 91.512C443.213 91.624 442.749 92.024 442.749 92.664C442.749 93.384 443.229 93.736 444.109 93.736ZM449.435 90.872C449.435 88.568 450.939 86.84 453.195 86.84C454.379 86.84 455.307 87.336 455.771 88.184L455.883 87.096H457.691V94.6C457.691 97.24 456.107 98.888 453.547 98.888C451.275 98.888 449.723 97.592 449.483 95.48H451.435C451.563 96.504 452.347 97.112 453.547 97.112C454.891 97.112 455.755 96.264 455.755 94.952V93.64C455.259 94.376 454.283 94.84 453.147 94.84C450.907 94.84 449.435 93.16 449.435 90.872ZM451.403 90.824C451.403 92.152 452.251 93.144 453.531 93.144C454.875 93.144 455.707 92.2 455.707 90.824C455.707 89.48 454.891 88.552 453.531 88.552C452.235 88.552 451.403 89.528 451.403 90.824ZM463.247 95.208C460.895 95.208 459.247 93.496 459.247 91.048C459.247 88.568 460.863 86.856 463.183 86.856C465.551 86.856 467.055 88.44 467.055 90.904V91.496L461.103 91.512C461.247 92.904 461.983 93.608 463.279 93.608C464.351 93.608 465.055 93.192 465.279 92.44H467.087C466.751 94.168 465.311 95.208 463.247 95.208ZM463.199 88.456C462.047 88.456 461.343 89.08 461.151 90.264H465.119C465.119 89.176 464.367 88.456 463.199 88.456Z" fill="#6E6E6E" fill-opacity="0.5"/>
</svg>
