<svg width="48" height="48" viewBox="0 0 48 48" fill="none" xmlns="http://www.w3.org/2000/svg">
<rect width="48" height="48" rx="24" fill="#F5F5F5"/>
<path opacity="0.4" d="M28.0013 13.334C28.0013 14.8067 24.1212 16.0007 19.3346 16.0007C14.5482 16.0007 10.668 14.8067 10.668 13.334V33.334C11.1612 34.9 13.4789 35.6937 16.0013 36.0007H21.4029C20.5164 35.5405 20.0013 34.9909 20.0013 34.4007V22.6673C20.0013 21.2636 23.5264 20.1132 28.0013 20.0084V13.334Z" fill="#8ED06C"/>
<path opacity="0.4" d="M28.6667 25.3327C33.4532 25.3327 37.3333 24.1388 37.3333 22.666V34.3993C37.3333 36.0193 33.4532 37.3327 28.6667 37.3327C23.8801 37.3327 20 36.0193 20 34.3993V22.666C20 24.1388 23.8801 25.3327 28.6667 25.3327Z" fill="#8ED06C"/>
<path d="M28.6667 25.3333C33.4531 25.3333 37.3333 24.1394 37.3333 22.6667C37.3333 21.1939 33.4531 20 28.6667 20C23.8802 20 20 21.1939 20 22.6667C20 24.1394 23.8802 25.3333 28.6667 25.3333Z" stroke="#8ED06C" stroke-width="1.5"/>
<path d="M37.3333 28.666C37.3333 30.1388 33.4532 31.3327 28.6667 31.3327C23.8801 31.3327 20 30.1388 20 28.666" stroke="#8ED06C" stroke-width="1.5"/>
<path d="M37.3333 22.666V34.3993C37.3333 36.0193 33.4532 37.3327 28.6667 37.3327C23.8801 37.3327 20 36.0193 20 34.3993V22.666" stroke="#8ED06C" stroke-width="1.5"/>
<path d="M19.3346 15.9993C24.1211 15.9993 28.0013 14.8054 28.0013 13.3327C28.0013 11.8599 24.1211 10.666 19.3346 10.666C14.5482 10.666 10.668 11.8599 10.668 13.3327C10.668 14.8054 14.5482 15.9993 19.3346 15.9993Z" stroke="#8ED06C" stroke-width="1.5"/>
<path d="M16.0013 22.6667C13.4789 22.3597 11.1612 21.566 10.668 20M16.0013 29.3333C13.4789 29.0264 11.1612 28.2327 10.668 26.6667" stroke="#8ED06C" stroke-width="1.5" stroke-linecap="round"/>
<path d="M16.0013 36.0007C13.4789 35.6937 11.1612 34.9 10.668 33.334V13.334" stroke="#8ED06C" stroke-width="1.5" stroke-linecap="round"/>
<path d="M28 16.0007V13.334" stroke="#8ED06C" stroke-width="1.5" stroke-linecap="round"/>
</svg>
