<svg width="40" height="40" viewBox="0 0 40 40" fill="none" xmlns="http://www.w3.org/2000/svg">
<path d="M19.9987 3.33398L20.0044 32.3393C19.4037 32.3382 18.8045 32.4725 18.3525 32.7427L13.3697 35.7166C9.78678 37.8506 7.63701 36.2712 8.57025 32.1882L9.75345 27.0298C9.9701 26.0552 9.5868 24.6942 8.88688 23.9885L4.754 19.8215C2.30428 17.3683 3.10418 14.8815 6.50381 14.3102L11.8199 13.4197C12.7198 13.2685 13.7863 12.4788 14.1863 11.6555L17.1194 5.74095C17.9094 4.13922 18.9529 3.33688 19.9987 3.33398ZM19.9987 3.33398H20.0044M24.9987 34.7402L26.6349 35.7166C30.2012 37.8506 32.3677 36.2543 31.4344 32.1882L30.2512 27.0298C30.0345 26.0552 30.4179 24.6942 31.1177 23.9885L35.2507 19.8215C37.6837 17.3683 36.9005 14.8815 33.5009 14.3102L28.1847 13.4197C27.3015 13.2685 26.235 12.4788 25.835 11.6555L24.9987 9.969" stroke="#004324" stroke-width="1.5" stroke-linecap="round" stroke-linejoin="round"/>
</svg>
