<svg width="48" height="48" viewBox="0 0 48 48" fill="none" xmlns="http://www.w3.org/2000/svg">
<rect width="48" height="48" rx="24" fill="#F5F5F5"/>
<path opacity="0.4" d="M36 30.8824C36 32.7257 33.4059 33.8216 28.2175 36.0133C26.1331 36.8937 25.0909 37.334 24 37.334C22.9091 37.334 21.8669 36.8937 19.7826 36.0133C14.5942 33.8216 12 32.7257 12 30.8824V17.334L24 23.1404L36 17.334V30.8824Z" fill="#8ED06C"/>
<path d="M24 37.334C22.9091 37.334 21.8669 36.8937 19.7826 36.0133C14.5942 33.8216 12 32.7257 12 30.8824C12 30.3663 12 21.42 12 17.334M24 37.334C25.0909 37.334 26.1331 36.8937 28.2175 36.0133C33.4059 33.8216 36 32.7257 36 30.8824V17.334M24 37.334V23.1404" stroke="#8ED06C" stroke-width="1.5" stroke-linecap="round" stroke-linejoin="round"/>
<path d="M19.1012 20.9212L15.2063 19.0365C13.0688 18.0021 12 17.485 12 16.666C12 15.847 13.0688 15.3299 15.2063 14.2955L19.1012 12.4108C21.5051 11.2476 22.7071 10.666 24 10.666C25.2929 10.666 26.4949 11.2476 28.8988 12.4108L32.7937 14.2955C34.9312 15.3299 36 15.847 36 16.666C36 17.485 34.9312 18.0021 32.7937 19.0365L28.8988 20.9212C26.4949 22.0844 25.2929 22.666 24 22.666C22.7071 22.666 21.5051 22.0844 19.1012 20.9212Z" stroke="#8ED06C" stroke-width="1.5" stroke-linecap="round" stroke-linejoin="round"/>
<path d="M16 24L18.6667 25.3333" stroke="#8ED06C" stroke-width="1.5" stroke-linecap="round" stroke-linejoin="round"/>
<path d="M30.6654 13.334L17.332 20.0007" stroke="#8ED06C" stroke-width="1.5" stroke-linecap="round" stroke-linejoin="round"/>
</svg>
