<svg width="48" height="48" viewBox="0 0 48 48" fill="none" xmlns="http://www.w3.org/2000/svg">
<rect width="48" height="48" rx="24" fill="#F5F5F5"/>
<path opacity="0.4" d="M35.3346 19.3333C35.3346 21.1743 33.8422 22.6667 32.0013 22.6667C30.1604 22.6667 28.668 21.1743 28.668 19.3333C28.668 17.4924 30.1604 16 32.0013 16C33.8422 16 35.3346 17.4924 35.3346 19.3333Z" fill="#8ED06C"/>
<path opacity="0.4" d="M19.3346 19.3333C19.3346 21.1743 17.8422 22.6667 16.0013 22.6667C14.1604 22.6667 12.668 21.1743 12.668 19.3333C12.668 17.4924 14.1604 16 16.0013 16C17.8422 16 19.3346 17.4924 19.3346 19.3333Z" fill="#8ED06C"/>
<path d="M35.6987 32C36.6977 32 37.4924 31.3713 38.2059 30.4921C39.6665 28.6925 37.2684 27.2544 36.3537 26.5501C35.424 25.8341 34.3859 25.4285 33.3333 25.3333M32 22.6667C33.8409 22.6667 35.3333 21.1743 35.3333 19.3333C35.3333 17.4924 33.8409 16 32 16" stroke="#8ED06C" stroke-width="1.5" stroke-linecap="round"/>
<path d="M12.3 32C11.3009 32 10.5063 31.3713 9.79276 30.4921C8.33215 28.6925 10.7303 27.2544 11.6449 26.5501C12.5747 25.8341 13.6128 25.4285 14.6654 25.3333M15.332 22.6667C13.4911 22.6667 11.9987 21.1743 11.9987 19.3333C11.9987 17.4924 13.4911 16 15.332 16" stroke="#8ED06C" stroke-width="1.5" stroke-linecap="round"/>
<path opacity="0.4" d="M18.7771 28.1476C17.4147 28.99 13.8427 30.7101 16.0183 32.8625C17.0811 33.914 18.2647 34.666 19.7529 34.666H28.2445C29.7327 34.666 30.9163 33.914 31.9791 32.8625C34.1547 30.7101 30.5827 28.99 29.2203 28.1476C26.0255 26.1721 21.9718 26.1721 18.7771 28.1476Z" fill="#8ED06C"/>
<path d="M18.7771 28.1476C17.4147 28.99 13.8427 30.7101 16.0183 32.8625C17.0811 33.914 18.2647 34.666 19.7529 34.666H28.2446C29.7327 34.666 30.9163 33.914 31.9791 32.8625C34.1547 30.7101 30.5827 28.99 29.2203 28.1476C26.0255 26.1721 21.9718 26.1721 18.7771 28.1476Z" stroke="#8ED06C" stroke-width="1.5" stroke-linecap="round" stroke-linejoin="round"/>
<path d="M28.6654 18.0007C28.6654 20.578 26.5761 22.6673 23.9987 22.6673C21.4214 22.6673 19.332 20.578 19.332 18.0007C19.332 15.4233 21.4214 13.334 23.9987 13.334C26.5761 13.334 28.6654 15.4233 28.6654 18.0007Z" stroke="#8ED06C" stroke-width="1.5"/>
</svg>
