<svg width="48" height="48" viewBox="0 0 48 48" fill="none" xmlns="http://www.w3.org/2000/svg">
<rect width="48" height="48" rx="24" fill="#F5F5F5"/>
<path opacity="0.4" d="M28.3509 29.3327H18.6667L16 16.666H33.8588C35.3263 16.666 36.06 16.666 36.4428 17.1928C36.8256 17.7195 36.6664 18.5102 36.348 20.0915C35.2444 25.5737 34.3344 29.3327 28.3509 29.3327Z" fill="#8ED06C"/>
<path d="M18.6667 29.3327H28.3509C34.3344 29.3327 35.2444 25.5737 36.348 20.0915C36.6664 18.5102 36.8256 17.7195 36.4428 17.1928C36.06 16.666 35.3263 16.666 33.8588 16.666H16" stroke="#8ED06C" stroke-width="1.5" stroke-linecap="round"/>
<path d="M18.6654 29.3327L15.1703 12.6859C14.8736 11.4988 13.8069 10.666 12.5833 10.666H11.332" stroke="#8ED06C" stroke-width="1.5" stroke-linecap="round"/>
<path d="M19.84 29.334H19.2914C17.4736 29.334 16 30.8691 16 32.7625C16 33.0781 16.2456 33.334 16.5486 33.334H31.3333" stroke="#8ED06C" stroke-width="1.5" stroke-linecap="round" stroke-linejoin="round"/>
<path d="M22 37.334C23.1046 37.334 24 36.4386 24 35.334C24 34.2294 23.1046 33.334 22 33.334C20.8954 33.334 20 34.2294 20 35.334C20 36.4386 20.8954 37.334 22 37.334Z" stroke="#8ED06C" stroke-width="1.5"/>
<path d="M31.332 37.334C32.4366 37.334 33.332 36.4386 33.332 35.334C33.332 34.2294 32.4366 33.334 31.332 33.334C30.2275 33.334 29.332 34.2294 29.332 35.334C29.332 36.4386 30.2275 37.334 31.332 37.334Z" stroke="#8ED06C" stroke-width="1.5"/>
</svg>
