<svg width="46" height="46" viewBox="0 0 46 46" fill="none" xmlns="http://www.w3.org/2000/svg">
<path d="M0.761719 0.828125V8.29587C4.95084 8.81919 8.40394 10.6364 11.6983 12.7167L9.378 14.5977L18.9202 19.4637L16.3008 8.98438L13.8722 10.9531C11.9761 7.20219 9.86175 3.66594 7.05188 0.828125H0.761719ZM26.7657 0.828125C25.301 3.52484 24.0276 6.27744 22.8488 9.09275L20.0185 8.49219L22.4504 19.0156L28.7373 10.3438L25.963 9.755C29.084 6.49747 32.3003 3.39941 36.0938 0.828125H26.7657ZM45.2813 9.626C41.72 9.85869 38.5276 11.4707 35.4348 13.4609L34.2657 10.4113L26.7599 18.1778L37.4562 18.7344L36.214 15.4941C39.2365 15.4065 42.2588 15.6654 45.2813 17.498V9.626ZM27.091 21.6288C26.596 21.6401 26.1338 21.8553 25.5031 22.5283L24.8878 23.1816L24.2491 22.5516C23.5566 21.8691 23.0101 21.6807 22.4561 21.705C21.9023 21.7294 21.251 22.0207 20.5225 22.6103L19.9396 23.0818L19.3859 22.578C18.5515 21.8232 17.8404 21.5995 17.1593 21.6346C16.6636 21.6603 16.1492 21.8471 15.6359 22.1737L19.4767 29.0819C20.9255 29.9681 23.886 30.3013 25.922 29.2753L29.6339 22.3993C28.9298 22.1123 28.297 21.8179 27.7501 21.705C27.5521 21.6641 27.3683 21.6342 27.1904 21.6288C27.1573 21.628 27.1242 21.628 27.091 21.6288ZM18.6563 30.6466C16.9656 31.8412 15.608 33.9014 15.0821 36.919C14.5726 39.8436 15.3754 41.8188 16.7961 43.165C18.2168 44.5112 20.3494 45.2028 22.5148 45.1747C24.6804 45.1466 26.8401 44.3956 28.2922 43.0244C29.7443 41.6532 30.5656 39.7033 30.0998 36.9131C29.6182 34.0296 28.3748 32.0242 26.8008 30.8105C24.1306 32.222 20.792 31.922 18.6563 30.6464V30.6466Z" fill="#8ED06C"/>
</svg>
