<svg width="36" height="40" viewBox="0 0 36 40" fill="none" xmlns="http://www.w3.org/2000/svg">
<path fill-rule="evenodd" clip-rule="evenodd" d="M16.94 0.304005C17.2579 0.105339 17.6252 0 18 0C18.3748 0 18.7421 0.105339 19.06 0.304005L32.868 8.934L18 17.68L3.13201 8.934L16.94 0.304005ZM0.0160073 11.742C0.00511604 11.8276 -0.000228249 11.9137 7.46843e-06 12V28C6.6684e-06 28.3392 0.0862824 28.6729 0.250721 28.9695C0.415159 29.2662 0.652357 29.5162 0.940008 29.696L16 39.108V21.144L0.0160073 11.742ZM20 39.108L35.06 29.696C35.3477 29.5162 35.5849 29.2662 35.7493 28.9695C35.9137 28.6729 36 28.3392 36 28V12C36 11.9133 35.9947 11.8273 35.984 11.742L20 21.142V39.108Z" fill="#8ED06C"/>
</svg>
