<svg width="48" height="48" viewBox="0 0 48 48" fill="none" xmlns="http://www.w3.org/2000/svg">
<rect width="48" height="48" rx="24" fill="#F5F5F5"/>
<path opacity="0.4" d="M29.9209 36.4637L30.6572 35.5435C31.3041 34.7348 32.678 34.8 33.2245 35.6651C33.8819 36.706 35.5056 36.4991 35.9559 35.5416C35.9793 35.4919 35.9207 35.6164 35.9708 35.1856C36.0208 34.7548 36 34.6564 35.9583 34.4597L33.3941 22.3521C32.7497 19.3093 32.4275 17.7878 31.3191 16.8939C30.2108 16 28.6464 16 25.5179 16H22.4821C19.3536 16 17.7893 16 16.6809 16.8939C15.5725 17.7878 15.2503 19.3093 14.6059 22.3521L12.0417 34.4597C12.0001 34.6564 11.9792 34.7548 12.0293 35.1856C12.0793 35.6164 12.0207 35.4919 12.0441 35.5416C12.4945 36.4991 14.1181 36.706 14.7755 35.6651C15.322 34.8 16.6958 34.7348 17.3428 35.5435L18.0791 36.4637C19.0069 37.6232 20.9443 37.6232 21.872 36.4637L21.9877 36.3189C22.9721 35.0887 25.0279 35.0887 26.0123 36.3189L26.128 36.4637C27.0557 37.6232 28.9932 37.6232 29.9209 36.4637Z" fill="#8ED06C"/>
<path d="M29.9209 36.4637L30.6572 35.5435C31.3041 34.7348 32.678 34.8 33.2245 35.6651C33.8819 36.706 35.5056 36.4991 35.9559 35.5416C35.9793 35.4919 35.9207 35.6164 35.9708 35.1856C36.0208 34.7548 36 34.6564 35.9583 34.4597L33.3941 22.3521C32.7497 19.3093 32.4275 17.7878 31.3191 16.8939C30.2108 16 28.6464 16 25.5179 16H22.4821C19.3536 16 17.7893 16 16.6809 16.8939C15.5725 17.7878 15.2503 19.3093 14.6059 22.3521L12.0417 34.4597C12.0001 34.6564 11.9792 34.7548 12.0293 35.1856C12.0793 35.6164 12.0207 35.4919 12.0441 35.5416C12.4945 36.4991 14.1181 36.706 14.7755 35.6651C15.322 34.8 16.6958 34.7348 17.3428 35.5435L18.0791 36.4637C19.0069 37.6232 20.9443 37.6232 21.872 36.4637L21.9877 36.3189C22.9721 35.0887 25.0279 35.0887 26.0123 36.3189L26.128 36.4637C27.0557 37.6232 28.9932 37.6232 29.9209 36.4637Z" stroke="#8ED06C" stroke-width="1.5" stroke-linejoin="round"/>
<path d="M11.3125 20.666C10.532 19.8553 10.679 18.8113 10.679 16.2017C10.679 13.5921 10.679 12.2874 11.4594 11.4767C12.2398 10.666 13.4958 10.666 16.0079 10.666H31.9949C34.5069 10.666 35.763 10.666 36.5434 11.4767C37.3238 12.2874 37.3238 13.5921 37.3238 16.2017C37.3238 18.8113 37.4698 19.8553 36.6894 20.666" stroke="#8ED06C" stroke-width="1.5" stroke-linecap="round"/>
<path d="M24 21.334H20" stroke="#8ED06C" stroke-width="1.5" stroke-linecap="round" stroke-linejoin="round"/>
<path d="M26.668 26.666H18.668" stroke="#8ED06C" stroke-width="1.5" stroke-linecap="round" stroke-linejoin="round"/>
</svg>
