<svg width="48" height="48" viewBox="0 0 48 48" fill="none" xmlns="http://www.w3.org/2000/svg">
<path fill-rule="evenodd" clip-rule="evenodd" d="M19 39C19.5304 39 20.0391 38.7893 20.4142 38.4142C20.7893 38.0391 21 37.5304 21 37C21 36.4696 20.7893 35.9609 20.4142 35.5858C20.0391 35.2107 19.5304 35 19 35C18.4696 35 17.9609 35.2107 17.5858 35.5858C17.2107 35.9609 17 36.4696 17 37C17 37.5304 17.2107 38.0391 17.5858 38.4142C17.9609 38.7893 18.4696 39 19 39ZM19 41C20.0609 41 21.0783 40.5786 21.8284 39.8284C22.5786 39.0783 23 38.0609 23 37C23 35.9391 22.5786 34.9217 21.8284 34.1716C21.0783 33.4214 20.0609 33 19 33C17.9391 33 16.9217 33.4214 16.1716 34.1716C15.4214 34.9217 15 35.9391 15 37C15 38.0609 15.4214 39.0783 16.1716 39.8284C16.9217 40.5786 17.9391 41 19 41ZM33 39C33.5304 39 34.0391 38.7893 34.4142 38.4142C34.7893 38.0391 35 37.5304 35 37C35 36.4696 34.7893 35.9609 34.4142 35.5858C34.0391 35.2107 33.5304 35 33 35C32.4696 35 31.9609 35.2107 31.5858 35.5858C31.2107 35.9609 31 36.4696 31 37C31 37.5304 31.2107 38.0391 31.5858 38.4142C31.9609 38.7893 32.4696 39 33 39ZM33 41C34.0609 41 35.0783 40.5786 35.8284 39.8284C36.5786 39.0783 37 38.0609 37 37C37 35.9391 36.5786 34.9217 35.8284 34.1716C35.0783 33.4214 34.0609 33 33 33C31.9391 33 30.9217 33.4214 30.1716 34.1716C29.4214 34.9217 29 35.9391 29 37C29 38.0609 29.4214 39.0783 30.1716 39.8284C30.9217 40.5786 31.9391 41 33 41ZM6 8C6 7.73478 6.10536 7.48043 6.29289 7.29289C6.48043 7.10536 6.73478 7 7 7H11C11.212 7.00014 11.4184 7.06763 11.5895 7.19273C11.7606 7.31783 11.8876 7.49407 11.952 7.696L18.74 29H34C34.2652 29 34.5196 29.1054 34.7071 29.2929C34.8946 29.4804 35 29.7348 35 30C35 30.2652 34.8946 30.5196 34.7071 30.7071C34.5196 30.8946 34.2652 31 34 31H18.008C17.796 30.9999 17.5896 30.9324 17.4185 30.8073C17.2474 30.6822 17.1204 30.5059 17.056 30.304L10.27 9H7C6.73478 9 6.48043 8.89464 6.29289 8.70711C6.10536 8.51957 6 8.26522 6 8Z" fill="#8ED06C"/>
<path d="M17 26L12 12H38.674C38.8286 12.0003 38.981 12.0364 39.1192 12.1055C39.2575 12.1745 39.3779 12.2747 39.4709 12.3982C39.5639 12.5216 39.6271 12.665 39.6554 12.8169C39.6837 12.9689 39.6764 13.1253 39.634 13.274L36.208 25.274C36.1484 25.4832 36.0223 25.6672 35.8487 25.7982C35.6751 25.9292 35.4635 26.0001 35.246 26H17Z" fill="#8ED06C"/>
</svg>
