<svg width="37" height="43" viewBox="0 0 37 43" fill="none" xmlns="http://www.w3.org/2000/svg">
<path d="M18.0233 0.279297C16.6264 0.307422 15.6233 0.579297 14.9576 1.0668L5.83576 5.95117L0.763881 12.8502C-0.304869 14.5002 0.454507 17.6877 3.79201 15.644L7.44826 10.8252C12.0889 6.82305 21.5576 8.65961 17.067 16.694C14.8639 21.344 15.8951 23.6127 18.7358 24.569L20.0295 20.219C22.2701 15.1752 26.4514 14.2659 26.2826 10.1971L36.3326 10.919L36.2389 0.410547L18.0233 0.279297ZM12.9514 9.97211C11.3201 9.94398 9.717 10.619 8.5545 11.594L4.88888 16.4127C5.89201 17.2096 6.90451 16.7784 7.90763 15.8127C9.08888 16.4127 10.0076 15.4846 10.7576 13.6284C11.067 12.3627 11.5264 11.4721 12.9514 9.97211ZM5.48888 18.9721C5.45138 18.9721 5.40451 18.9721 5.36701 18.9815C5.05763 19.0471 4.69201 19.3752 4.44826 20.1252C4.19513 20.8752 4.13888 21.944 4.36388 23.0877C4.58888 24.2221 5.05763 25.1877 5.58263 25.7877C6.08888 26.3784 6.55763 26.5471 6.867 26.4815C7.18575 26.4252 7.54201 26.0877 7.78576 25.3471C8.03888 24.5971 8.10451 23.519 7.87951 22.3846C7.64513 21.2409 7.17638 20.2752 6.66076 19.6846C6.21076 19.1596 5.79826 18.9721 5.48888 18.9721ZM13.2326 28.9846C12.492 28.994 11.5639 29.2284 10.6545 29.669C9.61388 30.1846 8.79826 30.8971 8.35763 31.5534C7.91701 32.2002 7.87951 32.6877 8.02013 32.9784C8.16076 33.2596 8.57326 33.5315 9.36076 33.569C10.1483 33.6159 11.2076 33.4002 12.2483 32.8846C13.2889 32.369 14.1045 31.6659 14.5451 31.0096C14.9858 30.3627 15.0233 29.8659 14.8826 29.5846C14.742 29.294 14.3295 29.0315 13.542 28.994C13.4389 28.9846 13.3451 28.9846 13.2326 28.9846ZM4.08263 37.9471C3.64201 37.9565 3.23888 38.0221 2.88263 38.1252C2.08576 38.3596 1.62638 38.7815 1.47638 39.2784C1.31701 39.7846 1.47638 40.3846 2.01076 41.0315C2.55451 41.669 3.46388 42.2784 4.58888 42.6159C5.70451 42.9534 6.79201 42.944 7.59826 42.7002C8.4045 42.4659 8.86388 42.044 9.01388 41.5471C9.16388 41.0409 9.01388 40.4409 8.47013 39.794C7.93576 39.1565 7.02638 38.5471 5.90138 38.2096C5.26388 38.0221 4.64513 37.9377 4.08263 37.9471Z" fill="#8ED06C"/>
</svg>
